{
	"asset":{
		"generator":"Khronos glTF Blender I/O v4.0.44",
		"version":"2.0"
	},
	"scene":0,
	"scenes":[
		{
			"name":"Scene",
			"nodes":[
				0,
				1
			]
		}
	],
	"nodes":[
		{
			"mesh":0,
			"name":"Text",
			"rotation":[
				0.6887964606285095,
				0,
				0,
				0.7249548435211182
			],
			"translation":[
				-2.5638272762298584,
				0,
				-0.2653467059135437
			]
		},
		{
			"mesh":1,
			"name":"Text.001",
			"rotation":[
				0.6887964606285095,
				0,
				0,
				0.7249548435211182
			],
			"translation":[
				-2.5638272762298584,
				0,
				0.7909069657325745
			]
		}
	],
	"meshes":[
		{
			"name":"Text",
			"primitives":[
				{
					"attributes":{
						"POSITION":0,
						"NORMAL":1,
						"TEXCOORD_0":2
					},
					"indices":3
				}
			]
		},
		{
			"name":"Text.001",
			"primitives":[
				{
					"attributes":{
						"POSITION":4,
						"NORMAL":5,
						"TEXCOORD_0":6
					},
					"indices":3
				}
			]
		}
	],
	"accessors":[
		{
			"bufferView":0,
			"componentType":5126,
			"count":978,
			"max":[
				4.939000129699707,
				0.6910000443458557,
				0.08999999612569809
			],
			"min":[
				0,
				-0.009000000543892384,
				-0.08999999612569809
			],
			"type":"VEC3"
		},
		{
			"bufferView":1,
			"componentType":5126,
			"count":978,
			"type":"VEC3"
		},
		{
			"bufferView":2,
			"componentType":5126,
			"count":978,
			"type":"VEC2"
		},
		{
			"bufferView":3,
			"componentType":5123,
			"count":2832,
			"type":"SCALAR"
		},
		{
			"bufferView":4,
			"componentType":5126,
			"count":978,
			"max":[
				4.939000129699707,
				0.6910000443458557,
				0.08999999612569809
			],
			"min":[
				0,
				-0.009000000543892384,
				-0.08999999612569809
			],
			"type":"VEC3"
		},
		{
			"bufferView":5,
			"componentType":5126,
			"count":978,
			"type":"VEC3"
		},
		{
			"bufferView":6,
			"componentType":5126,
			"count":978,
			"type":"VEC2"
		}
	],
	"bufferViews":[
		{
			"buffer":0,
			"byteLength":11736,
			"byteOffset":0,
			"target":34962
		},
		{
			"buffer":0,
			"byteLength":11736,
			"byteOffset":11736,
			"target":34962
		},
		{
			"buffer":0,
			"byteLength":7824,
			"byteOffset":23472,
			"target":34962
		},
		{
			"buffer":0,
			"byteLength":5664,
			"byteOffset":31296,
			"target":34963
		},
		{
			"buffer":0,
			"byteLength":11736,
			"byteOffset":36960,
			"target":34962
		},
		{
			"buffer":0,
			"byteLength":11736,
			"byteOffset":48696,
			"target":34962
		},
		{
			"buffer":0,
			"byteLength":7824,
			"byteOffset":60432,
			"target":34962
		}
	],
	"buffers":[
		{
			"byteLength":68256,
			"uri":"worzala.bin"
		}
	]
}
